<?xml version="1.0" encoding="utf-8"?>
<!-- Generator: Adobe Illustrator 25.2.1, SVG Export Plug-In . SVG Version: 6.00 Build 0)  -->
<svg version="1.1" id="Layer_1" xmlns="http://www.w3.org/2000/svg" xmlns:xlink="http://www.w3.org/1999/xlink" x="0px" y="0px"
	 viewBox="0 0 512 512" style="enable-background:new 0 0 512 512;" xml:space="preserve">
<style type="text/css">
	.st0{fill:#FB7B76;}
	.st1{fill:#DB2626;stroke:#ED6464;}
	.st2{fill:#FFFFFF;}
	.st3{stroke:#000000;stroke-miterlimit:10;}
	.st4{stroke:#000000;stroke-width:1.0006;stroke-miterlimit:10.0036;}
	.st5{stroke:#000000;stroke-width:1.0002;stroke-miterlimit:10.0012;}
	.st6{stroke:#000000;stroke-width:1.0002;stroke-miterlimit:10.0008;}
</style>
<g>
	<g>
		<path d="M225.1,82.4l-0.4,1.4c-22.6,0.1-44.6,5.5-65,16.4c-20.5,11-36.8,26.9-49.3,45.7l-1.4-0.4c-3.8-4.2-7.2-8.8-10-14
			c-6.7-12.4-9.1-25.8-8-38.9c2-21.8,14.6-42.4,35.4-53.8c20.6-11.4,44.9-10.8,64.3-0.5c11.6,6.1,21.6,15.6,28.3,27.8
			C221.7,71.6,223.8,76.8,225.1,82.4z"/>
		<path class="st0" d="M343.9,438.5c-77.9,42.4-182.2,1-232.9-92.4c-37.6-69-35.4-147-0.4-200.2c12.2-18.8,28.9-34.6,49.3-45.7
			c20.3-11.2,42.6-16.4,65-16.7c63.6-0.5,130.2,40,167.8,109C443.5,286.2,421.7,396.3,343.9,438.5z"/>
		<path class="st1" d="M162.4,104c73.9-37.3,174.1,5.5,223.7,96s30,194.2-44,231.6"/>
		
			<ellipse transform="matrix(0.2829 -0.9592 0.9592 0.2829 27.1939 158.2591)" class="st2" cx="119.4" cy="60.9" rx="7.9" ry="9.8"/>
		<polygon class="st2" points="124.8,81.9 120.4,104.4 99.6,114.2 83.5,101.6 88.1,79 108.7,69.3 		"/>
		<polygon class="st2" points="208.5,67.6 187.8,73.8 169.8,59.7 172.2,39.2 193,32.9 211.1,47.1 		"/>
		<ellipse class="st2" cx="157.7" cy="44.4" rx="9" ry="9"/>
		<path d="M105.6,157c-1.9-0.5-3.8-1.7-5.3-3.2c-4.7-4.9-8.5-10.4-11.8-16.4c-7.7-14.2-11-29.9-9.5-45.7c2.5-26.8,18-50.4,41.5-63.1
			s51.8-13,75.6-0.6c14,7.4,25.6,18.6,33.2,32.6c3.2,6,5.8,12.4,7.4,18.8c1.6,6.4-2.3,12.8-8.5,14.4c-6.4,1.6-12.8-2.3-14.4-8.5
			c-1.3-4.6-2.9-9-5.3-13.2c-5.4-10-13.4-17.9-23.4-23c-16.8-8.6-36.6-8.6-53.2,0.5c-16.6,9-27.5,25.6-29.3,44.4
			c-1.1,11.2,1.2,22.2,6.6,32.2c2.3,4.2,5,8,8.3,11.6c4.6,4.8,4.1,12.2-0.7,16.8C113.9,157.4,109.6,158.2,105.6,157z"/>
		<path d="M229.2,460.1c-5.5-1.6-10.9-3.5-16.3-5.6c-46.7-18.4-86.5-54.8-112.3-102.4c-38.4-70.6-38.4-153.8,0-212.3
			c13.8-21.1,31.9-37.8,53.5-49.4c21.7-11.8,45.4-17.9,70.7-18.1l0,0c70-0.6,140,44.5,178.3,115.1c25.8,47.5,34.8,100.8,25,150
			c-10,49.9-37.7,89.6-78.5,111.8C313.3,468.6,271.2,472.4,229.2,460.1z M267.9,101.9c-14-4.1-28.4-6.4-43-6.2l0,0
			c-21.2,0.1-41.3,5.3-59.4,15.1s-33.4,23.9-45,41.8c-33.7,51.1-33.2,124.9,1.1,187.9c23.4,42.7,58.8,75.4,100.2,91.7
			c40.7,16.1,82.1,14.6,116.5-4.2c72-39.1,91.6-142.2,44.2-229.7C355.9,150.4,313.7,115.5,267.9,101.9z"/>
	</g>
	<ellipse class="st3" cx="214" cy="279.2" rx="33.5" ry="26.9"/>
	
		<ellipse transform="matrix(0.7446 -0.6676 0.6676 0.7446 -87.12 251.7505)" class="st4" cx="285.4" cy="239.7" rx="33.5" ry="26.9"/>
	<ellipse transform="matrix(0.7886 -0.6149 0.6149 0.7886 -209.674 225.106)" cx="222.6" cy="417.5" rx="34" ry="28.7"/>
	<ellipse transform="matrix(0.866 -0.5 0.5 0.866 -34.7214 98.6239)" cx="166.7" cy="114.1" rx="43.7" ry="34.2"/>
	
		<ellipse transform="matrix(0.7454 -0.6666 0.6666 0.7454 -48.2503 129.3148)" class="st2" cx="145.2" cy="127.8" rx="19.3" ry="6.5"/>
	
		<ellipse transform="matrix(0.9468 -0.3218 0.3218 0.9468 -23.8035 65.5908)" class="st2" cx="186.5" cy="104.8" rx="21.4" ry="6.4"/>
	<ellipse cx="169.8" cy="197" rx="28.2" ry="25.1"/>
	<circle cx="101.4" cy="227.3" r="25.1"/>
	<circle cx="298.2" cy="120.8" r="25.1"/>
	<ellipse class="st5" cx="372.6" cy="193" rx="26.3" ry="35.5"/>
	
		<ellipse transform="matrix(0.7071 -0.7071 0.7071 0.7071 -190.5905 177.8671)" class="st6" cx="119.4" cy="319" rx="26.3" ry="35.5"/>
	<ellipse transform="matrix(0.8092 -0.5876 0.5876 0.8092 -156.0637 219.9517)" cx="260.6" cy="350.2" rx="29" ry="23.4"/>
	<ellipse transform="matrix(0.8786 -0.4776 0.4776 0.8786 -161.4982 212.7638)" cx="337.7" cy="424" rx="31.8" ry="21.7"/>
	<ellipse cx="322.1" cy="319" rx="29" ry="23.4"/>
	<ellipse transform="matrix(0.6898 -0.724 0.724 0.6898 -43.8177 221.9115)" cx="237.1" cy="162.1" rx="28.2" ry="25.1"/>
	<ellipse transform="matrix(4.359196e-02 -0.999 0.999 4.359196e-02 44.7145 711.952)" cx="394.2" cy="332.6" rx="24.7" ry="30.4"/>
</g>
</svg>
