<?xml version="1.0" encoding="utf-8"?>
<!-- Generator: Adobe Illustrator 25.2.1, SVG Export Plug-In . SVG Version: 6.00 Build 0)  -->
<svg version="1.1" id="Layer_1" xmlns="http://www.w3.org/2000/svg" xmlns:xlink="http://www.w3.org/1999/xlink" x="0px" y="0px"
	 viewBox="0 0 512 512" style="enable-background:new 0 0 512 512;" xml:space="preserve">
<style type="text/css">
	.st0{fill:#6A9EDA;}
	.st1{clip-path:url(#SVGID_2_);}
	.st2{fill:#5086C1;}
	.st3{clip-path:url(#SVGID_4_);}
	.st4{fill:#2E4E6B;}
	.st5{clip-path:url(#SVGID_6_);}
	.st6{clip-path:url(#SVGID_8_);}
	.st7{fill:#E2E37E;}
	.st8{fill:#605F33;}
	.st9{fill:#C8CA66;}
	.st10{fill:#FF6961;}
	.st11{clip-path:url(#SVGID_10_);}
	.st12{fill:#E2504C;}
	.st13{clip-path:url(#SVGID_12_);}
	.st14{fill:#82262A;}
	.st15{clip-path:url(#SVGID_14_);}
	.st16{clip-path:url(#SVGID_16_);}
	.st17{fill:#77DD77;}
	.st18{clip-path:url(#SVGID_18_);}
	.st19{fill:#42AB49;}
	.st20{clip-path:url(#SVGID_20_);}
	.st21{fill:#286829;}
	.st22{clip-path:url(#SVGID_22_);}
	.st23{clip-path:url(#SVGID_24_);}
</style>
<g>
	<g>
		<g>
			<g>
				<path class="st0" d="M387.3,276.5c0-6.4,5.3-11.6,11.6-11.6h30.4c6.4,0,11.6,5.3,11.6,11.6v27.6c0,6.4-5.3,11.6-11.6,11.6h-30.4
					c-6.4,0-11.6-5.3-11.6-11.6V276.5z"/>
			</g>
			<g>
				<g>
					<defs>
						<rect id="SVGID_1_" x="412.2" y="264.9" width="28.8" height="51"/>
					</defs>
					<clipPath id="SVGID_2_">
						<use xlink:href="#SVGID_1_"  style="overflow:visible;"/>
					</clipPath>
					<g class="st1">
						<path class="st2" d="M388.2,276.5c0-6.4,5.3-11.6,11.6-11.6h29.5c6.4,0,11.6,5.3,11.6,11.6v27.6c0,6.4-5.3,11.6-11.6,11.6
							h-29.4c-6.4,0-11.6-5.3-11.6-11.6v-27.6H388.2z"/>
					</g>
				</g>
			</g>
			<g>
				<g>
					<defs>
						<rect id="SVGID_3_" x="427.5" y="264.9" width="13.5" height="51"/>
					</defs>
					<clipPath id="SVGID_4_">
						<use xlink:href="#SVGID_3_"  style="overflow:visible;"/>
					</clipPath>
					<g class="st3">
						<path class="st4" d="M416.4,276.5c0-6.4,5.3-11.6,11.6-11.6h1.2c6.4,0,11.6,5.3,11.6,11.6v27.6c0,6.4-5.3,11.6-11.6,11.6H428
							c-6.4,0-11.6-5.3-11.6-11.6V276.5z"/>
					</g>
				</g>
			</g>
		</g>
		<g>
			<g>
				<path class="st0" d="M273.4,277.8c0-6.4,5.3-11.6,11.6-11.6h30.4c6.4,0,11.6,5.3,11.6,11.6v27.6c0,6.4-5.3,11.6-11.6,11.6h-30.4
					c-6.4,0-11.6-5.3-11.6-11.6V277.8z"/>
			</g>
			<g>
				<g>
					<defs>
						<rect id="SVGID_5_" x="298.3" y="266.2" width="28.8" height="51"/>
					</defs>
					<clipPath id="SVGID_6_">
						<use xlink:href="#SVGID_5_"  style="overflow:visible;"/>
					</clipPath>
					<g class="st5">
						<path class="st2" d="M274.4,277.8c0-6.4,5.3-11.6,11.6-11.6h29.5c6.4,0,11.6,5.3,11.6,11.6v27.6c0,6.4-5.3,11.6-11.6,11.6H286
							c-6.4,0-11.6-5.3-11.6-11.6V277.8z"/>
					</g>
				</g>
			</g>
			<g>
				<g>
					<defs>
						<rect id="SVGID_7_" x="313.7" y="266.2" width="13.5" height="51"/>
					</defs>
					<clipPath id="SVGID_8_">
						<use xlink:href="#SVGID_7_"  style="overflow:visible;"/>
					</clipPath>
					<g class="st6">
						<path class="st4" d="M302.6,277.8c0-6.4,5.3-11.6,11.6-11.6h1.2c6.4,0,11.6,5.3,11.6,11.6v27.6c0,6.4-5.3,11.6-11.6,11.6h-1.2
							c-6.4,0-11.6-5.3-11.6-11.6V277.8z"/>
					</g>
				</g>
			</g>
		</g>
		<rect x="240.4" y="302.4" class="st0" width="233.6" height="109.9"/>
		<rect x="460.5" y="302.4" class="st4" width="13.5" height="109.9"/>
		<rect x="445.7" y="302.4" class="st2" width="15.4" height="109.9"/>
	</g>
	<g>
		<rect x="6.8" y="302.4" class="st7" width="233.6" height="109.9"/>
		<rect x="227" y="302.4" class="st8" width="13.5" height="109.9"/>
		<rect x="212.1" y="302.4" class="st9" width="15.4" height="109.9"/>
		<rect x="6.8" y="396.6" class="st9" width="205.3" height="15.7"/>
	</g>
	<g>
		<g>
			<g>
				<path class="st10" d="M153.8,166.7c0-6.4,5.3-11.6,11.6-11.6h30.4c6.4,0,11.6,5.3,11.6,11.6v27.6c0,6.4-5.3,11.6-11.6,11.6
					h-30.4c-6.4,0-11.6-5.3-11.6-11.6V166.7z"/>
			</g>
			<g>
				<g>
					<defs>
						<rect id="SVGID_9_" x="178.6" y="155" width="28.8" height="51"/>
					</defs>
					<clipPath id="SVGID_10_">
						<use xlink:href="#SVGID_9_"  style="overflow:visible;"/>
					</clipPath>
					<g class="st11">
						<path class="st12" d="M154.7,166.7c0-6.4,5.3-11.6,11.6-11.6h29.5c6.4,0,11.6,5.3,11.6,11.6v27.6c0,6.4-5.3,11.6-11.6,11.6
							h-29.5c-6.4,0-11.6-5.3-11.6-11.6V166.7z"/>
					</g>
				</g>
			</g>
			<g>
				<g>
					<defs>
						<rect id="SVGID_11_" x="194" y="155" width="13.5" height="51"/>
					</defs>
					<clipPath id="SVGID_12_">
						<use xlink:href="#SVGID_11_"  style="overflow:visible;"/>
					</clipPath>
					<g class="st13">
						<path class="st14" d="M182.9,166.7c0-6.4,5.3-11.6,11.6-11.6h1.2c6.4,0,11.6,5.3,11.6,11.6v27.6c0,6.4-5.3,11.6-11.6,11.6
							h-1.2c-6.4,0-11.6-5.3-11.6-11.6V166.7z"/>
					</g>
				</g>
			</g>
		</g>
		<g>
			<g>
				<path class="st10" d="M39.8,167.9c0-6.4,5.3-11.6,11.6-11.6h30.4c6.4,0,11.6,5.3,11.6,11.6v27.6c0,6.4-5.3,11.6-11.6,11.6H51.6
					c-6.4,0-11.6-5.3-11.6-11.6v-27.6H39.8z"/>
			</g>
			<g>
				<g>
					<defs>
						<rect id="SVGID_13_" x="64.8" y="156.3" width="28.8" height="51"/>
					</defs>
					<clipPath id="SVGID_14_">
						<use xlink:href="#SVGID_13_"  style="overflow:visible;"/>
					</clipPath>
					<g class="st15">
						<path class="st12" d="M40.8,167.9c0-6.4,5.3-11.6,11.6-11.6h29.5c6.4,0,11.6,5.3,11.6,11.6v27.6c0,6.4-5.3,11.6-11.6,11.6
							H52.5c-6.4,0-11.6-5.3-11.6-11.6v-27.6H40.8z"/>
					</g>
				</g>
			</g>
			<g>
				<g>
					<defs>
						<rect id="SVGID_15_" x="80.1" y="156.3" width="13.5" height="51"/>
					</defs>
					<clipPath id="SVGID_16_">
						<use xlink:href="#SVGID_15_"  style="overflow:visible;"/>
					</clipPath>
					<g class="st16">
						<path class="st14" d="M69,167.9c0-6.4,5.3-11.6,11.6-11.6h1.2c6.4,0,11.6,5.3,11.6,11.6v27.6c0,6.4-5.3,11.6-11.6,11.6h-1.2
							c-6.4,0-11.6-5.3-11.6-11.6V167.9z"/>
					</g>
				</g>
			</g>
		</g>
		<rect x="6.8" y="192.6" class="st10" width="233.6" height="109.9"/>
		<rect x="227" y="192.6" class="st14" width="13.5" height="109.9"/>
		<rect x="212.1" y="192.6" class="st12" width="15.4" height="109.9"/>
	</g>
	<rect x="6.8" y="286.8" class="st12" width="205.3" height="15.7"/>
	<rect x="240.4" y="396.6" class="st2" width="205.3" height="15.7"/>
	<g>
		<g>
			<g>
				<g>
					<path class="st17" d="M428.8,44.7c1.7-6.1,8.2-9.8,14.4-8l29.2,8.2c6.1,1.7,9.8,8.2,8,14.4l-7.5,26.6c-1.7,6.1-8.2,9.8-14.4,8
						l-29.2-8.2c-6.1-1.7-9.8-8.2-8-14.4L428.8,44.7z"/>
				</g>
				<g>
					<g>
						<defs>
							
								<rect id="SVGID_17_" x="437.4" y="54.2" transform="matrix(0.2711 -0.9626 0.9626 0.2711 271.3 495.5869)" width="51" height="28.8"/>
						</defs>
						<clipPath id="SVGID_18_">
							<use xlink:href="#SVGID_17_"  style="overflow:visible;"/>
						</clipPath>
						<g class="st18">
							<path class="st19" d="M429.6,44.9c1.7-6.1,8.2-9.8,14.4-8l28.4,8c6.1,1.7,9.8,8.2,8,14.4l-7.5,26.6c-1.7,6.1-8.2,9.8-14.4,8
								l-28.3-8c-6.1-1.7-9.8-8.2-8-14.4L429.6,44.9L429.6,44.9z"/>
						</g>
					</g>
				</g>
				<g>
					<g>
						<defs>
							
								<rect id="SVGID_19_" x="444.8" y="64" transform="matrix(0.2711 -0.9626 0.9626 0.2711 274.6814 504.2128)" width="51" height="13.5"/>
						</defs>
						<clipPath id="SVGID_20_">
							<use xlink:href="#SVGID_19_"  style="overflow:visible;"/>
						</clipPath>
						<g class="st20">
							<path class="st21" d="M456.8,52.6c1.7-6.1,8.2-9.8,14.4-8l1.2,0.3c6.1,1.7,9.8,8.2,8,14.4l-7.5,26.6c-1.7,6.1-8.2,9.8-14.4,8
								l-1.2-0.3c-6.1-1.7-9.8-8.2-8-14.4L456.8,52.6z"/>
						</g>
					</g>
				</g>
			</g>
			<g>
				<g>
					<path class="st17" d="M318.8,15.1c1.7-6.1,8.2-9.8,14.4-8l29.2,8.2c6.1,1.7,9.8,8.2,8,14.4L363,56.2c-1.7,6.1-8.2,9.8-14.4,8
						L319.4,56c-6.1-1.7-9.8-8.2-8-14.4L318.8,15.1z"/>
				</g>
				<g>
					<g>
						<defs>
							
								<rect id="SVGID_21_" x="327.4" y="24.6" transform="matrix(0.2711 -0.9626 0.9626 0.2711 219.5949 368.1206)" width="51" height="28.8"/>
						</defs>
						<clipPath id="SVGID_22_">
							<use xlink:href="#SVGID_21_"  style="overflow:visible;"/>
						</clipPath>
						<g class="st22">
							<path class="st19" d="M319.7,15.3c1.7-6.1,8.2-9.8,14.4-8l28.4,8c6.1,1.7,9.8,8.2,8,14.4L363,56.2c-1.7,6.1-8.2,9.8-14.4,8
								l-28.4-8c-6.1-1.7-9.8-8.2-8-14.4L319.7,15.3z"/>
						</g>
					</g>
				</g>
				<g>
					<g>
						<defs>
							
								<rect id="SVGID_23_" x="334.9" y="34.4" transform="matrix(0.2711 -0.9626 0.9626 0.2711 223.0218 376.8623)" width="51" height="13.5"/>
						</defs>
						<clipPath id="SVGID_24_">
							<use xlink:href="#SVGID_23_"  style="overflow:visible;"/>
						</clipPath>
						<g class="st23">
							<path class="st21" d="M346.9,23c1.7-6.1,8.2-9.8,14.4-8l1.2,0.3c6.1,1.7,9.8,8.2,8,14.4L363,56.2c-1.7,6.1-8.2,9.8-14.4,8
								l-1.2-0.3c-6.1-1.7-9.8-8.2-8-14.4L346.9,23z"/>
						</g>
					</g>
				</g>
			</g>
			
				<rect x="323" y="-2.5" transform="matrix(0.2711 -0.9626 0.9626 0.2711 165.4489 447.0516)" class="st17" width="109.9" height="233.6"/>
			
				<rect x="428.9" y="137.4" transform="matrix(0.2711 -0.9626 0.9626 0.2711 213.9466 570.7661)" class="st21" width="109.9" height="13.5"/>
			
				<rect x="415.5" y="132.6" transform="matrix(0.2711 -0.9626 0.9626 0.2711 207.8419 555.1932)" class="st19" width="109.9" height="15.4"/>
		</g>
		
			<rect x="248.9" y="147.9" transform="matrix(0.9626 0.2711 -0.2711 0.9626 55.3967 -89.4554)" class="st19" width="205.3" height="15.7"/>
	</g>
</g>
</svg>
