<?xml version="1.0" encoding="utf-8"?>
<!-- Generator: Adobe Illustrator 25.2.1, SVG Export Plug-In . SVG Version: 6.00 Build 0)  -->
<svg version="1.1" id="Layer_1" xmlns="http://www.w3.org/2000/svg" xmlns:xlink="http://www.w3.org/1999/xlink" x="0px" y="0px"
	 viewBox="0 0 512 512" style="enable-background:new 0 0 512 512;" xml:space="preserve">
<style type="text/css">
	.st0{fill:#666666;}
	.st1{fill:#545454;}
	.st2{fill:#FB7B76;}
	.st3{fill:#DB2626;stroke:#ED6464;}
	.st4{fill:#FFFFFF;}
</style>
<path class="st0" d="M207.8,120v1.4c-20.2,6.1-38.6,16.8-54,32.1s-26,33.8-32.1,54h-1.4c-4.5-2.7-8.8-6-12.7-9.9
	c-9.3-9.3-15.1-20.8-17.5-32.8c-4-20.2,1.9-41.9,17.5-57.6s37.4-21.5,57.6-17.5c12,2.4,23.5,8.2,32.8,17.5
	C201.8,111.2,205.1,115.5,207.8,120z"/>
<ellipse transform="matrix(0.5 -0.866 0.866 0.5 -25.4739 198.1198)" class="st1" cx="158.8" cy="121.1" rx="27.3" ry="41.9"/>
<path class="st2" d="M408.5,408.2c-58.6,58.6-163.1,49.1-233.4-21.2c-51.9-51.9-70.7-122.5-53.3-179.4c6.1-20.2,16.8-38.6,32.1-54
	s33.8-26,54-32.1c56.9-17.3,127.5,1.4,179.4,53.3C457.6,245.1,467.1,349.6,408.5,408.2z"/>
<path class="st3" d="M157.2,156c56.4-53.1,157.6-41.1,226.1,27s78.3,166.2,21.8,219.3"/>
<g>
	<path class="st4" d="M400.3,291.8c7.6,7.6,7.6,20,0,27.6s-20,7.6-27.6,0s-7.6-20,0-27.6C380.3,284.2,392.7,284.2,400.3,291.8z"/>
	<path class="st4" d="M358.8,203.2c7.6,7.6,7.6,20,0,27.6s-20,7.6-27.6,0s-7.6-20,0-27.6C338.8,195.6,351.2,195.6,358.8,203.2z"/>
	<path class="st4" d="M229.3,332.7c7.6,7.6,7.6,20,0,27.6s-20,7.6-27.6,0s-7.6-20,0-27.6S221.7,325.1,229.3,332.7z"/>
	<path class="st4" d="M187.8,244.1c7.6,7.6,7.6,20,0,27.6s-20,7.6-27.6,0s-7.6-20,0-27.6S180.2,236.5,187.8,244.1z"/>
</g>
<path d="M75.7,177.1c-26.8,0-53-10.6-72.2-29.8c-4.3-4.3-4.3-11.4,0-15.7s11.4-4.3,15.7,0c18,18,43.8,26.4,69.1,22.3
	c6.1-1,11.8,3.1,12.7,9.2c1,6.1-3.1,11.8-9.2,12.7C86.5,176.7,81.1,177.1,75.7,177.1z"/>
<path d="M165.2,100.9c-0.6,0-1.2,0-1.8-0.1c-6.1-1-10.2-6.7-9.2-12.7c4.1-25.2-4.3-51-22.3-69.1c-4.3-4.3-4.3-11.4,0-15.7
	s11.4-4.3,15.7,0c23.1,23.1,33.7,56.1,28.5,88.3C175.2,97,170.5,100.9,165.2,100.9z"/>
<path d="M119.3,308H61.1C55,308,50,303,50,296.9s5-11.1,11.1-11.1h58.2c6.1,0,11.1,5,11.1,11.1S125.4,308,119.3,308z"/>
<path d="M133.8,439.4c-2.8,0-5.7-1.1-7.9-3.3c-4.3-4.3-4.3-11.4,0-15.7l36-36c4.3-4.3,11.4-4.3,15.7,0s4.3,11.4,0,15.7l-36,36
	C139.5,438.3,136.6,439.4,133.8,439.4z"/>
<path d="M265.1,512c-6.1,0-11.1-5-11.1-11.1v-58.2c0-6.1,5-11.1,11.1-11.1s11.1,5,11.1,11.1v58.2C276.2,507,271.3,512,265.1,512z"/>
<path d="M500.6,276.5h-58.2c-6.1,0-11.1-5-11.1-11.1s5-11.1,11.1-11.1h58.2c6.1,0,11.1,5,11.1,11.1S506.8,276.5,500.6,276.5z"/>
<path d="M392,181.1c-2.8,0-5.7-1.1-7.9-3.3c-4.3-4.3-4.3-11.4,0-15.7l36-36c4.3-4.3,11.4-4.3,15.7,0c4.3,4.3,4.3,11.4,0,15.7l-36,36
	C397.7,180,394.9,181.1,392,181.1z"/>
<path d="M296.6,130.7c-6.1,0-11.1-5-11.1-11.1V61.4c0-6.1,5-11.1,11.1-11.1s11.1,5,11.1,11.1v58.2
	C307.7,125.7,302.8,130.7,296.6,130.7z"/>
<path d="M174,288.6c-7.8,0-15.7-3-21.7-9c-11.9-11.9-11.9-31.4,0-43.3c12-11.9,31.4-12,43.3,0l0,0c5.8,5.8,9,13.5,9,21.7
	c0,8.2-3.2,15.9-9,21.7C189.7,285.6,181.8,288.6,174,288.6z M174,249.5c-2.2,0-4.3,0.8-6,2.5c-3.3,3.3-3.3,8.6,0,11.9
	s8.6,3.3,11.9,0c1.6-1.6,2.5-3.7,2.5-6s-0.9-4.4-2.5-5.9l0,0C178.3,250.3,176.1,249.5,174,249.5z"/>
<path d="M215.5,377.2c-8.2,0-15.9-3.2-21.7-9s-9-13.5-9-21.7s3.2-15.9,9-21.7c5.8-5.8,13.5-9,21.7-9s15.9,3.2,21.7,9s9,13.5,9,21.7
	s-3.2,15.9-9,21.7C231.4,374,223.7,377.2,215.5,377.2z M215.5,338.1c-2.2,0-4.4,0.9-5.9,2.5c-1.6,1.6-2.5,3.7-2.5,6
	c0,2.2,0.9,4.4,2.5,5.9c1.6,1.6,3.7,2.5,6,2.5c2.2,0,4.4-0.9,5.9-2.5c1.6-1.6,2.5-3.7,2.5-6s-0.9-4.4-2.5-5.9l0,0
	C219.8,339,217.7,338.1,215.5,338.1z"/>
<path d="M200,210.9c-2.8,0-5.7-1.1-7.9-3.3l-1.7-1.7c-4.3-4.3-4.3-11.4,0-15.7s11.4-4.3,15.7,0l1.7,1.7c4.3,4.3,4.3,11.4,0,15.7
	C205.7,209.8,202.9,210.9,200,210.9z"/>
<path d="M408.4,419.3c-2.8,0-5.7-1.1-7.9-3.3L214.8,230.2c-4.3-4.3-4.3-11.4,0-15.7s11.4-4.3,15.7,0l185.8,185.8
	c4.3,4.3,4.3,11.4,0,15.7C414.1,418.2,411.3,419.3,408.4,419.3z"/>
<g>
	<path class="st4" d="M321.5,373.2c7.6,7.6,7.6,20,0,27.6s-20,7.6-27.6,0s-7.6-20,0-27.6S313.9,365.6,321.5,373.2z"/>
	<path d="M307.7,417.6c-7.8,0-15.7-3-21.7-8.9l0,0c-11.9-11.9-11.9-31.4,0-43.3c12-12,31.4-12,43.4,0s12,31.4,0,43.4
		C323.4,414.7,315.6,417.6,307.7,417.6z M301.7,393c3.3,3.3,8.6,3.3,11.9,0s3.3-8.6,0-11.9s-8.6-3.3-11.9,0
		C298.5,384.3,298.5,389.7,301.7,393z"/>
</g>
<path d="M311.4,457.7c-5.3,0-10.7-0.2-16.2-0.7c-46.7-4.2-92.1-26.3-127.9-62.1c-53.1-53.1-75.2-127.9-56.1-190.5
	c6.9-22.6,18.6-42.3,34.9-58.6s36-28,58.6-34.9l0,0c62.6-19,137.4,3,190.5,56.1c35.8,35.8,57.9,81.3,62.1,127.9
	c4.3,47.4-10.2,90.4-40.9,121.1C389.1,443.2,352.3,457.7,311.4,457.7z M251.2,126.3c-13.7,0-27.3,1.9-40.2,5.8l0,0
	c-19.1,5.8-35.7,15.7-49.3,29.3s-23.6,30.3-29.3,49.3c-16.7,54.8,3.2,120.9,50.6,168.3c32.2,32.2,72.7,52,114.2,55.7
	c40.7,3.7,77.5-8.6,103.4-34.5c54.2-54.2,44.6-151.8-21.2-217.7C343.1,146.4,295.9,126.3,251.2,126.3z"/>
<path d="M120.3,218.6c-1.9,0-3.9-0.5-5.6-1.5c-5.4-3.2-10.4-7.1-14.9-11.6C89.1,194.9,82,181.6,79.2,167
	c-4.8-24.6,2.8-49.9,20.5-67.6s43-25.4,67.6-20.5c14.6,2.9,27.9,10,38.5,20.5c4.5,4.5,8.4,9.5,11.6,14.9c3.1,5.3,1.4,12.1-3.9,15.2
	c-5.3,3.1-12.1,1.4-15.2-3.9c-2.3-3.8-5-7.4-8.2-10.5c-7.5-7.5-16.8-12.5-27.1-14.5c-17.3-3.4-35.1,2-47.6,14.5
	s-17.9,30.2-14.5,47.6c2,10.3,7,19.6,14.5,27.1c3.2,3.2,6.7,5.9,10.5,8.2c5.3,3.1,7,9.9,3.9,15.2
	C127.8,216.7,124.1,218.6,120.3,218.6z"/>
<g>
	<path class="st4" d="M280.5,157.2c7.6,7.6,7.6,20,0,27.6s-20,7.6-27.6,0s-7.6-20,0-27.6C260.5,149.6,272.9,149.6,280.5,157.2z"/>
	<path d="M266.6,201.6c-7.8,0-15.7-3-21.7-8.9l0,0c-11.9-11.9-11.9-31.4,0-43.3c12-12,31.4-12,43.4,0s12,31.4,0,43.4
		C282.3,198.7,274.5,201.6,266.6,201.6z M260.6,177c3.3,3.3,8.6,3.3,11.9,0s3.3-8.6,0-11.9c-3.3-3.3-8.6-3.3-11.9,0
		C257.4,168.3,257.4,173.7,260.6,177z"/>
</g>
<path d="M345,247.6c-7.8,0-15.7-3-21.7-8.9l0,0c-11.9-11.9-11.9-31.4,0-43.3c12-12,31.4-12,43.4,0s12,31.4,0,43.4
	C360.7,244.7,352.9,247.6,345,247.6z M339,223c3.3,3.3,8.6,3.3,11.9,0s3.3-8.6,0-11.9c-3.3-3.3-8.6-3.3-11.9,0
	C335.8,214.3,335.8,219.7,339,223z"/>
<path d="M386.5,336.3c-7.8,0-15.7-3-21.7-9l0,0l0,0c-5.8-5.8-9-13.5-9-21.7s3.2-15.9,9-21.7c5.8-5.8,13.5-9,21.7-9s15.9,3.2,21.7,9
	c5.8,5.8,9,13.5,9,21.7s-3.2,15.9-9,21.7C402.2,333.3,394.3,336.3,386.5,336.3z M386.5,297.2c-2.2,0-4.4,0.9-5.9,2.5
	c-1.6,1.6-2.5,3.7-2.5,6s0.9,4.4,2.5,6l0,0c3.3,3.3,8.6,3.3,11.9,0c1.6-1.6,2.5-3.7,2.5-6c0-2.2-0.9-4.4-2.5-6
	S388.7,297.2,386.5,297.2z"/>
</svg>
