<?xml version="1.0" encoding="utf-8"?>
<!-- Generator: Adobe Illustrator 25.2.1, SVG Export Plug-In . SVG Version: 6.00 Build 0)  -->
<svg version="1.1" id="Capa_1" xmlns="http://www.w3.org/2000/svg" xmlns:xlink="http://www.w3.org/1999/xlink" x="0px" y="0px"
	 viewBox="0 0 595.3 595.3" style="enable-background:new 0 0 595.3 595.3;" xml:space="preserve">
<style type="text/css">
	.st0{fill:#A3673B;}
	.st1{fill:#FFFFFF;}
	.st2{fill:#020203;}
	.st3{fill:#CD936C;stroke:#020203;stroke-width:25;stroke-miterlimit:10;}
	.st4{fill:none;stroke:#020203;stroke-width:25.0004;stroke-miterlimit:10.0002;}
	.st5{fill:#A0653D;}
	.st6{fill:none;stroke:#020203;stroke-width:25;stroke-miterlimit:10;}
	.st7{fill:#723E1A;}
	.st8{fill:#6D4224;}
</style>
<g>
	<g>
		<path class="st0" d="M95.7,152c41.9,0.1,75.7,61.9,75.4,138.2c-0.3,76.3-34.6,138-76.5,137.9s-75.8-62-75.5-138.3
			C19.4,213.5,53.7,151.9,95.7,152z"/>
	</g>
	<polygon class="st1" points="475.5,476.2 497.6,476.2 497.5,495 475.4,494.9 	"/>
	<polygon class="st2" points="192.2,262 214.3,262.1 214.3,280.9 192.1,280.8 	"/>
	<path class="st3" d="M94.6,428.1c38.8,0.1,70.6-61.5,70.9-137.8s-31-138.2-69.8-138.3l411.1,1c38.8,0.1,70.1,61.9,69.9,138.2
		c-0.3,76.3-32.1,138-71,137.9L94.6,428.1L94.6,428.1z"/>
	<polygon class="st2" points="231.2,185.8 520,186.5 519.9,214.5 231.1,213.8 	"/>
	
		<ellipse transform="matrix(4.204151e-03 -1 1 4.204151e-03 -197.1295 382.0407)" class="st4" cx="93.3" cy="290" rx="138.1" ry="74.1"/>
	<path class="st5" d="M106.7,420.1h406c38.4,0,69.6-61.1,69.6-136.5h-406C176.3,359,145.1,420.1,106.7,420.1z"/>
	<polygon class="st2" points="275.6,351.8 564,352.5 563.9,379.6 275.5,378.9 	"/>
	<polygon class="st1" points="200.1,352.2 231.1,352.3 231,379.2 200,379.2 	"/>
	<polygon class="st1" points="300.8,240.7 475.5,241.2 475.4,268 300.7,267.6 	"/>
	<path class="st6" d="M101,428.1c38.3,0.1,69.7-61.5,70-137.8c0.3-76.3-30.7-138.2-68.9-138.3l405.7,1
		c38.3,0.1,69.2,61.9,68.9,138.2s-31.7,138-70.1,137.9L101,428.1L101,428.1z"/>
	<path class="st1" d="M97.5,204c-14.9,0-28.1,9.8-37.1,27.6c-7.7,15.2-11.9,35.2-11.9,56.3h22.6c0-42.2,17.4-65.2,26.4-65.2V204z"/>
	<path class="st2" d="M135.3,289.4h-22.6c0,42.2-17.4,65.2-26.4,65.2v18.6c14.9,0,28.1-9.8,37.1-27.6
		C131.1,330.5,135.3,310.5,135.3,289.4z"/>
	<rect x="50.4" y="308" class="st2" width="22.6" height="24.9"/>
	<rect x="112.7" y="245.9" class="st1" width="22.6" height="24.9"/>
	<polygon class="st7" points="217.6,241 251.2,241.1 251.1,267.9 217.5,267.8 	"/>
	<polygon class="st2" points="176.3,297.7 344.5,298.4 344.4,326.4 176.2,325.7 	"/>
	<polygon class="st8" points="388.2,297.7 556.4,298.4 556.3,326.4 388.1,325.7 	"/>
</g>
</svg>
